<?xml version="1.0" encoding="utf-8"?>
<!-- Generator: Adobe Illustrator 18.0.0, SVG Export Plug-In . SVG Version: 6.00 Build 0)  -->
<!DOCTYPE svg PUBLIC "-//W3C//DTD SVG 1.1//EN" "http://www.w3.org/Graphics/SVG/1.1/DTD/svg11.dtd">
<svg version="1.1" id="Layer_1" xmlns="http://www.w3.org/2000/svg" xmlns:xlink="http://www.w3.org/1999/xlink" x="0px" y="0px"
	 viewBox="0 0 612 792" enable-background="new 0 0 612 792" xml:space="preserve">
<g id="XMLID_7_">
	<path id="XMLID_6_" fill="#FFD34C" d="M45.3,69.1c0-1.7,1.2-3.7,2.6-4.5l54-31.2c1.4-0.8,3.8-0.8,5.2,0l54,31.2
		c1.4,0.8,2.6,2.8,2.6,4.5v62.3c0,1.7-1.2,3.7-2.6,4.5l-54,31.2c-1.4,0.8-3.8,0.8-5.2,0l-54-31.2c-1.4-0.8-2.6-2.8-2.6-4.5V69.1z"/>
	<path id="XMLID_53_" fill="#DB9F33" d="M47.9,106.1c-1.4,0.8-2.6,2.8-2.6,4.5v20.8c0,1.6,1.2,3.7,2.6,4.5l54,31.2
		c1.4,0.8,3.8,0.8,5.2,0l54-31.2c1.4-0.8,2.6-2.9,2.6-4.5v-20.8c0-1.7-1.2-3.7-2.6-4.5l-54-31.2c-1.4-0.8-3.8-0.8-5.2,0L47.9,106.1z
		"/>
</g>
</svg>
