<?xml version="1.0" encoding="utf-8"?>
<!-- Generator: Adobe Illustrator 19.1.0, SVG Export Plug-In . SVG Version: 6.00 Build 0)  -->
<svg version="1.1" id="Layer_1" xmlns="http://www.w3.org/2000/svg" xmlns:xlink="http://www.w3.org/1999/xlink" x="0px" y="0px"
	 viewBox="0 0 118.4 134.9" style="enable-background:new 0 0 118.4 134.9;" xml:space="preserve">
<style type="text/css">
	.st0{fill:#FFD34D;}
	.st1{fill:#DBA032;}
</style>
<g id="XMLID_7_">
	<path id="XMLID_6_" class="st0" d="M0.3,36.1c0-1.7,1.2-3.7,2.6-4.5l54-31.2c1.4-0.8,3.8-0.8,5.2,0l54,31.2
		c1.4,0.8,2.6,2.8,2.6,4.5v62.3c0,1.7-1.2,3.7-2.6,4.5l-54,31.2c-1.4,0.8-3.8,0.8-5.2,0l-54-31.2c-1.4-0.8-2.6-2.8-2.6-4.5
		C0.3,98.4,0.3,36.1,0.3,36.1z"/>
	<path id="XMLID_53_" class="st1" d="M2.9,73.1c-1.4,0.8-2.6,2.8-2.6,4.5v20.8c0,1.6,1.2,3.7,2.6,4.5l54,31.2c1.4,0.8,3.8,0.8,5.2,0
		l54-31.2c1.4-0.8,2.6-2.9,2.6-4.5V77.6c0-1.7-1.2-3.7-2.6-4.5l-54-31.2c-1.4-0.8-3.8-0.8-5.2,0L2.9,73.1z"/>
</g>
</svg>
